<?xml version="1.0" encoding="utf-8"?>
<!DOCTYPE svg PUBLIC "-//W3C//DTD SVG 1.1//EN" "http://www.w3.org/Graphics/SVG/1.1/DTD/svg11.dtd">
<svg version="1.1" xmlns="http://www.w3.org/2000/svg" x="0px" y="0px" width="1920px" height="512px" viewBox="0 0 1920 512">
<rect fill-rule="evenodd" clip-rule="evenodd" fill="#F44336" width="1920" height="512"/>
<linearGradient id="shadow" gradientUnits="userSpaceOnUse" x1="1554.0625" y1="139.0376" x2="1923.5125" y2="508.4876">
	<stop  offset="0" style="stop-color:#000000;stop-opacity:0.251"/>
	<stop  offset="1" style="stop-color:#000000;stop-opacity:0.1255"/>
</linearGradient>
<polygon fill-rule="evenodd" clip-rule="evenodd" fill="url(#shadow)" points="1920,263.6 1920,512 1685.65,512 1569.7,396.05 
	1680.3,237.55 1574.75,132 1768.1,111.7 "/>
<path fill-rule="evenodd" clip-rule="evenodd" fill="#FFFFFF" d="M1768.1,128.65l-169.3,247.1h175.55v20.3H1569.7V377.9L1738.45,132
	h-163.7v-20.3h193.35V128.65z M1519.1,96.05v300h-23.449v-300H1519.1z M1407.4,249.2c0-15.133-4.634-26.983-13.9-35.55
	c-9.367-8.733-22.967-13.1-40.8-13.1c-16.267,0-29.75,4.167-40.45,12.5c-10.667,8.333-16,18.35-16,30.05l-23.45-0.15
	c0-16.8,7.817-31.333,23.45-43.6c15.633-12.367,34.833-18.55,57.6-18.55c23.567,0,42.184,5.934,55.851,17.8
	c13.566,11.7,20.533,28.1,20.899,49.2v100c0,20.434,2.15,35.733,6.45,45.9v2.35h-25c-2.333-6.633-3.816-16.467-4.45-29.5
	c-8.232,10.667-18.649,18.934-31.25,24.8c-12.767,5.733-26.25,8.601-40.449,8.601c-20.301,0-36.7-5.667-49.2-17
	c-12.634-11.334-18.95-25.65-18.95-42.95c0-20.566,8.583-36.85,25.75-48.85c17.066-11.967,40.9-17.95,71.5-17.95h42.4V249.2z
	 M1338.65,379.25c15.6,0,29.583-3.767,41.949-11.3c12.268-7.566,21.2-17.667,26.801-30.3v-46.5H1365.6
	c-23.333,0.267-41.566,4.566-54.699,12.899c-13.167,8.2-19.75,19.533-19.75,34c0,11.834,4.433,21.667,13.3,29.5
	C1313.184,375.35,1324.583,379.25,1338.65,379.25z M1187.65,123.8c0-4.433,1.433-8.216,4.3-11.35c2.866-3,6.767-4.5,11.7-4.5
	c4.967,0,8.949,1.5,11.949,4.5c2.867,3.133,4.301,6.85,4.301,11.15c0,4.433-1.434,8.133-4.301,11.1c-3,3-6.982,4.5-11.949,4.5
	c-4.934,0-8.834-1.5-11.7-4.5C1189.083,131.733,1187.65,128.1,1187.65,123.8z M1152.7,183.35l-0.55,21.3
	c-4.967-0.9-10.25-1.35-15.851-1.35c-14.566,0-26.866,4.1-36.899,12.3c-10.167,8.066-17.4,19.85-21.7,35.35v145.1h-23.25V184.7
	h22.85l0.4,33.6c12.366-25,32.233-37.5,59.6-37.5C1143.8,180.8,1148.934,181.65,1152.7,183.35z M1215.2,184.7v211.35h-23.45V184.7
	H1215.2z M985.7,269.5c-0.634-20.333-6.417-36.867-17.351-49.6c-10.966-12.767-25.3-19.15-43-19.15
	c-17.567,0-32.35,6.433-44.35,19.3c-12.1,12.9-19.45,30.233-22.05,52H985.7V269.5z M1008.95,291.95h-150.8v4.5
	c0,23.967,6.9,43.95,20.7,59.95c13.7,15.899,30.966,23.85,51.8,23.85c12.5,0,23.567-2.283,33.2-6.85
	c9.5-4.567,18.15-11.867,25.95-21.9l14.65,11.15c-17.167,24.866-42.101,37.3-74.8,37.3c-17.966,0-34.183-4.417-48.65-13.25
	c-14.566-8.867-25.883-21.184-33.95-36.95c-8.066-15.866-12.1-33.634-12.1-53.3v-8.4c0-20.333,3.966-38.633,11.9-54.9
	c7.8-16.267,18.733-29.017,32.8-38.25c14.067-9.4,29.3-14.1,45.7-14.1c25.667,0,46.05,8.8,61.15,26.4
	c14.967,17.433,22.45,41.316,22.45,71.649V291.95z M755.65,130.6v54.1h43.75v19.15h-43.75V344.9c0,11.699,2.15,20.416,6.45,26.149
	c4.167,5.733,11.2,8.601,21.1,8.601c3.9,0,10.216-0.65,18.95-1.95l0.95,18.95c-6.1,2.199-14.434,3.3-25,3.3
	c-16,0-27.65-4.617-34.95-13.851c-7.3-9.366-10.95-23.1-10.95-41.199V203.85h-38.85V184.7h38.85v-54.1H755.65z M663.45,393.7v2.35
	h-25c-2.333-6.633-3.817-16.467-4.45-29.5c-8.233,10.667-18.65,18.934-31.25,24.8c-12.767,5.733-26.25,8.601-40.45,8.601
	c-20.3,0-36.7-5.667-49.2-17c-12.633-11.334-18.95-25.65-18.95-42.95c0-20.566,8.583-36.85,25.75-48.85
	c17.067-11.967,40.9-17.95,71.5-17.95h42.4v-24c0-15.133-4.633-26.983-13.9-35.55c-9.367-8.733-22.966-13.1-40.8-13.1
	c-16.267,0-29.75,4.167-40.45,12.5c-10.667,8.333-16,18.35-16,30.05l-23.45-0.15c0-16.8,7.816-31.333,23.45-43.6
	c15.633-12.367,34.833-18.55,57.6-18.55c23.566,0,42.184,5.934,55.85,17.8c13.566,11.7,20.533,28.1,20.9,49.2v100
	C657,368.233,659.15,383.533,663.45,393.7z M438.45,111.7v284.35h-24V272.2l1.95-126.95l-105.85,250.8H292l-105.5-249.8l1.95,125.2
	v124.6h-24V111.7h31.8l104.9,250.95l105.3-250.95H438.45z M592,291.15c-23.333,0.267-41.566,4.566-54.7,12.899
	c-13.167,8.2-19.75,19.533-19.75,34c0,11.834,4.434,21.667,13.3,29.5c8.733,7.8,20.133,11.7,34.2,11.7
	c15.6,0,29.583-3.767,41.95-11.3c12.267-7.566,21.2-17.667,26.8-30.3v-46.5H592z"/>
</svg>
